<mxfile host="app.diagrams.net" modified="2024-04-24T17:51:26.545Z" agent="Mozilla/5.0 (Windows NT 10.0; Win64; x64) AppleWebKit/537.36 (KHTML, like Gecko) Chrome/124.0.0.0 Safari/537.36" version="24.3.0" etag="nYP8Hkdz7FhFC2U_T221" type="github">
  <diagram name="Page-1" id="UwVu2Y9g-k2sSM1Nu_ps">
    <mxGraphModel>
      <root>
        <mxCell id="0" />
        <mxCell id="1" parent="0" />
      </root>
    </mxGraphModel>
  </diagram>
</mxfile>
